# xmcd CD database file
# Copyright (C) 1993-1998 Ti Kan
#
# Track frame offsets:
#	150
#	11655
#	26050
#	39243
#	58856
#	71651
#	95166
#	104491
#	123322
#	143705
#	153850
#	165428
#	177544
#	196162
#
# Disc length: 3005 seconds
#
# Revision: 0
# Processed by: cddbd v1.4b41PL1 Copyright (c) Steve Scherf et al.
# Submitted via: CDmax 1.5
#
DISCID=bd0bbb0e
DTITLE=The Weavers - Reunion at Carnegie Hall 1963
DYEAR=1900
DGENRE=
TTITLE0=When the Saints Go Marching In
TTITLE1=The Banks of Marble
TTITLE2=Woke Up This Morning
TTITLE3=Ramblin´ Boy
TTITLE4=Poor Liza
TTITLE5=Train Time
TTITLE6=Wimoweh
TTITLE7=San Franzisco Bay Blues
TTITLE8=Guantanamera
TTITLE9=If I Had A Hammer
TTITLE10=Come Away, Melinda
TTITLE11=Study War No More
TTITLE12=Goodnight, Irene
TTITLE13=´Round the World
EXTD=
EXTT0=
EXTT1=
EXTT2=
EXTT3=
EXTT4=
EXTT5=
EXTT6=
EXTT7=
EXTT8=
EXTT9=
EXTT10=
EXTT11=
EXTT12=
EXTT13=
PLAYORDER=
